<svg xmlns="http://www.w3.org/2000/svg" viewBox="0 0 129.13 15.28"><defs><style>.cls-1{fill:#fff;}</style></defs><title>head large</title><g id="Layer_2" data-name="Layer 2"><g id="Layer_2-2" data-name="Layer 2"><path class="cls-1" d="M15.26,2.08V15.15H11.64V7.73L9.21,15.15H6.08L3.65,7.73v7.42H0V2.08H4.47l3.22,8.49,3.14-8.49Z"/><path class="cls-1" d="M28,4.75v10.4H24.32V13.4A3.32,3.32,0,0,1,23,14.74a3.94,3.94,0,0,1-2,.5A3.52,3.52,0,0,1,18.2,14a4.8,4.8,0,0,1-1-3.27v-6H20.8v5.58a2,2,0,0,0,.47,1.4,1.66,1.66,0,0,0,1.27.51,1.7,1.7,0,0,0,1.3-.52,2.1,2.1,0,0,0,.48-1.47V4.75Z"/><path class="cls-1" d="M39.75,5.85a4.85,4.85,0,0,1,1,3.25v6.05H37.15V9.57a2,2,0,0,0-.47-1.42,1.85,1.85,0,0,0-2.57,0,2.06,2.06,0,0,0-.48,1.45v5.53H30V4.75h3.65V6.49a3.41,3.41,0,0,1,1.3-1.34,3.91,3.91,0,0,1,2-.5A3.5,3.5,0,0,1,39.75,5.85Z"/><path class="cls-1" d="M43,.53A2.29,2.29,0,0,1,44.57,0a2.2,2.2,0,0,1,1.54.53,1.75,1.75,0,0,1,.57,1.34,1.67,1.67,0,0,1-.58,1.3,2.2,2.2,0,0,1-1.53.52A2.28,2.28,0,0,1,43,3.17a1.68,1.68,0,0,1-.59-1.3A1.73,1.73,0,0,1,43,.53Zm3.36,4.22v10.4H42.72V4.75Z"/><path class="cls-1" d="M55.62,5.62a4.32,4.32,0,0,1,1.54,2.65H53.75a1.41,1.41,0,0,0-.53-.84,1.7,1.7,0,0,0-1-.27,1,1,0,0,0-.63.17.61.61,0,0,0-.21.49.63.63,0,0,0,.46.59,9.78,9.78,0,0,0,1.49.43,14.86,14.86,0,0,1,2,.56,3.42,3.42,0,0,1,1.37,1,2.65,2.65,0,0,1,.59,1.8,2.72,2.72,0,0,1-.5,1.61,3.35,3.35,0,0,1-1.46,1.11,6,6,0,0,1-2.25.4,5.82,5.82,0,0,1-3.49-.95A3.94,3.94,0,0,1,48,11.62h3.5a1.15,1.15,0,0,0,.49.86,1.91,1.91,0,0,0,1,.27,1,1,0,0,0,.65-.18.58.58,0,0,0,.22-.48.68.68,0,0,0-.47-.65A8.19,8.19,0,0,0,52,11,13.19,13.19,0,0,1,50,10.5a3.36,3.36,0,0,1-1.33-.92,2.64,2.64,0,0,1-.56-1.78,2.81,2.81,0,0,1,1.09-2.29,4.79,4.79,0,0,1,3.12-.89A5,5,0,0,1,55.62,5.62Z"/><path class="cls-1" d="M68.67,5.85a4.85,4.85,0,0,1,1,3.25v6.05H66.08V9.57a2,2,0,0,0-.48-1.42,1.64,1.64,0,0,0-1.27-.51,1.67,1.67,0,0,0-1.3.53,2.06,2.06,0,0,0-.48,1.45v5.53H58.9V1.43h3.65V6.49a3.41,3.41,0,0,1,1.3-1.34,3.93,3.93,0,0,1,2-.5A3.5,3.5,0,0,1,68.67,5.85Z"/><path class="cls-1" d="M79.44,8.53l5.77,6.62H82.63L77.46,9.08v6.07H75.35V2.06h2.11v6l5.19-6h2.56Z"/><path class="cls-1" d="M94.13,5.43A4.56,4.56,0,0,1,96,7.25,5.63,5.63,0,0,1,96.65,10a5.69,5.69,0,0,1-.67,2.8,4.56,4.56,0,0,1-1.85,1.82,5.66,5.66,0,0,1-2.67.63,5.53,5.53,0,0,1-2.66-.63,4.55,4.55,0,0,1-1.86-1.83A5.59,5.59,0,0,1,86.27,10a5.53,5.53,0,0,1,.67-2.78A4.59,4.59,0,0,1,88.8,5.43a5.53,5.53,0,0,1,2.66-.63A5.66,5.66,0,0,1,94.13,5.43ZM90,7a2.7,2.7,0,0,0-1.1,1.14A3.87,3.87,0,0,0,88.43,10a3.88,3.88,0,0,0,.42,1.89A2.79,2.79,0,0,0,90,13.05a3.25,3.25,0,0,0,3,0,2.73,2.73,0,0,0,1.1-1.13A3.88,3.88,0,0,0,94.48,10a3.87,3.87,0,0,0-.42-1.88A2.64,2.64,0,0,0,93,7a3.25,3.25,0,0,0-3,0Z"/><path class="cls-1" d="M107.25,5.91a4.63,4.63,0,0,1,1.08,3.29v6h-2.12V9.42a3,3,0,0,0-.7-2.13,2.52,2.52,0,0,0-1.93-.75,2.64,2.64,0,0,0-2,.81,3.32,3.32,0,0,0-.76,2.36v5.44H98.69V1.43h2.11V7.17a3.45,3.45,0,0,1,1.37-1.78,4,4,0,0,1,2.23-.63A3.75,3.75,0,0,1,107.25,5.91Z"/><path class="cls-1" d="M117.26,5.49a3.62,3.62,0,0,1,1.39,1.81V4.93h2.12V15.15h-2.12V12.77a3.65,3.65,0,0,1-1.39,1.82,4,4,0,0,1-2.37.69,4.53,4.53,0,0,1-2.38-.63,4.27,4.27,0,0,1-1.64-1.82,6.15,6.15,0,0,1-.6-2.8,6.09,6.09,0,0,1,.6-2.78,4.27,4.27,0,0,1,1.64-1.82,4.53,4.53,0,0,1,2.38-.63A4,4,0,0,1,117.26,5.49Zm-4,2.06a3.46,3.46,0,0,0-.85,2.48,3.42,3.42,0,0,0,.85,2.47,2.93,2.93,0,0,0,2.25.9,3.14,3.14,0,0,0,1.59-.41,3,3,0,0,0,1.12-1.18,3.74,3.74,0,0,0,.4-1.78,3.73,3.73,0,0,0-.4-1.77,2.95,2.95,0,0,0-2.71-1.6A3,3,0,0,0,113.29,7.55Z"/><path class="cls-1" d="M126.9,5.35a4.24,4.24,0,0,1,2.23-.59v2.3h-.63a3.5,3.5,0,0,0-2.24.68,2.71,2.71,0,0,0-.84,2.23v5.18h-2.11V4.93h2.11v2A4,4,0,0,1,126.9,5.35Z"/></g></g></svg>