<svg xmlns="http://www.w3.org/2000/svg" width="49" height="57" viewBox="0 0 49 57">
  <g id="Polygon_1" data-name="Polygon 1" transform="translate(49) rotate(90)" fill="#fff">
    <path d="M 53.52304077148438 48.50000381469727 L 3.476959943771362 48.50000381469727 C 2.933680057525635 48.50000381469727 2.447609901428223 48.21885299682617 2.176719903945923 47.7479133605957 C 1.905840039253235 47.27698135375977 1.907189965248108 46.71546173095703 2.180340051651001 46.24584197998047 L 27.203369140625 3.223773002624512 C 27.47500038146973 2.756753206253052 27.95973014831543 2.477933168411255 28.5 2.477933168411255 C 29.04026985168457 2.477933168411255 29.52499008178711 2.756753206253052 29.7966194152832 3.223773002624512 L 54.81966018676758 46.24584197998047 C 55.09281158447266 46.71546173095703 55.09415817260742 47.27698135375977 54.82328033447266 47.7479133605957 C 54.55239105224609 48.21885299682617 54.06631851196289 48.50000381469727 53.52304077148438 48.50000381469727 Z" stroke="none"/>
    <path d="M 28.5 2.977924346923828 C 28.32704925537109 2.977924346923828 27.8966007232666 3.026374816894531 27.63558006286621 3.475154876708984 L 2.612541198730469 46.49722290039063 C 2.350059509277344 46.94850158691406 2.523418426513672 47.34786224365234 2.610130310058594 47.49861145019531 C 2.696849822998047 47.64936447143555 2.954898834228516 48.00000381469727 3.476959228515625 48.00000381469727 L 53.52304077148438 48.00000381469727 C 54.04510116577148 48.00000381469727 54.30315017700195 47.64936447143555 54.38985824584961 47.49861145019531 C 54.47658157348633 47.34786224365234 54.64992904663086 46.94850158691406 54.387451171875 46.49722290039063 L 29.36441040039063 3.475154876708984 C 29.10338973999023 3.026374816894531 28.67295074462891 2.977924346923828 28.5 2.977924346923828 M 28.49999809265137 1.977928161621094 C 29.17161560058594 1.977928161621094 29.84322929382324 2.309413909912109 30.22883033752441 2.972381591796875 L 55.25186920166016 45.99445343017578 C 56.02738189697266 47.32777404785156 55.06549072265625 49.00000381469727 53.52304077148438 49.00000381469727 L 3.476959228515625 49.00000381469727 C 1.93450927734375 49.00000381469727 0.9726181030273438 47.32777404785156 1.748119354248047 45.99445343017578 L 26.77116012573242 2.972381591796875 C 27.15676498413086 2.309413909912109 27.82838249206543 1.977928161621094 28.49999809265137 1.977928161621094 Z" stroke="none" fill="#707070"/>
  </g>
</svg>
